<mxfile host="app.diagrams.net" agent="Mozilla/5.0 (Windows NT 10.0; Win64; x64) AppleWebKit/537.36 (KHTML, like Gecko) Chrome/127.0.0.0 Safari/537.36" version="24.7.7">
  <diagram name="第 1 页" id="H3XxOkJDnDmUSWwI3N38">
    <mxGraphModel dx="327" dy="730" grid="1" gridSize="10" guides="1" tooltips="1" connect="1" arrows="1" fold="1" page="1" pageScale="1" pageWidth="827" pageHeight="1169" math="0" shadow="0">
      <root>
        <mxCell id="0" />
        <mxCell id="1" parent="0" />
        <mxCell id="Cfc-i1cAho32yu0Xs4cY-7" style="edgeStyle=orthogonalEdgeStyle;rounded=0;orthogonalLoop=1;jettySize=auto;html=1;fontSize=16;fontFamily=Times New Roman;" edge="1" parent="1" source="5FVNqS5WDFzmGWRmupJZ-1" target="Cfc-i1cAho32yu0Xs4cY-1">
          <mxGeometry relative="1" as="geometry" />
        </mxCell>
        <mxCell id="Cfc-i1cAho32yu0Xs4cY-11" style="edgeStyle=orthogonalEdgeStyle;rounded=0;orthogonalLoop=1;jettySize=auto;html=1;fontSize=16;fontFamily=Times New Roman;" edge="1" parent="1" source="5FVNqS5WDFzmGWRmupJZ-1">
          <mxGeometry relative="1" as="geometry">
            <mxPoint x="270" y="175" as="targetPoint" />
          </mxGeometry>
        </mxCell>
        <mxCell id="5FVNqS5WDFzmGWRmupJZ-1" value="&lt;font style=&quot;font-size: 16px;&quot;&gt;Pre-processing&lt;/font&gt;" style="rounded=1;whiteSpace=wrap;html=1;fontStyle=1;fillColor=#dae8fc;strokeColor=#000000;fontSize=16;fontFamily=Times New Roman;" parent="1" vertex="1">
          <mxGeometry x="310" y="150" width="140" height="50" as="geometry" />
        </mxCell>
        <mxCell id="Cfc-i1cAho32yu0Xs4cY-12" style="edgeStyle=orthogonalEdgeStyle;rounded=0;orthogonalLoop=1;jettySize=auto;html=1;entryX=1;entryY=0.5;entryDx=0;entryDy=0;fontSize=16;fontFamily=Times New Roman;" edge="1" parent="1" source="Cfc-i1cAho32yu0Xs4cY-1" target="Cfc-i1cAho32yu0Xs4cY-2">
          <mxGeometry relative="1" as="geometry">
            <Array as="points">
              <mxPoint x="650" y="175" />
              <mxPoint x="650" y="265" />
            </Array>
          </mxGeometry>
        </mxCell>
        <mxCell id="Cfc-i1cAho32yu0Xs4cY-1" value="&lt;font style=&quot;font-size: 16px;&quot;&gt;&lt;span style=&quot;font-size: 16px;&quot;&gt;Feature Extraction&lt;/span&gt;&lt;/font&gt;" style="rounded=1;whiteSpace=wrap;html=1;fontStyle=1;fillColor=#dae8fc;strokeColor=#000000;fontSize=16;fontFamily=Times New Roman;" vertex="1" parent="1">
          <mxGeometry x="490" y="150" width="140" height="50" as="geometry" />
        </mxCell>
        <mxCell id="Cfc-i1cAho32yu0Xs4cY-9" style="edgeStyle=orthogonalEdgeStyle;rounded=0;orthogonalLoop=1;jettySize=auto;html=1;fontSize=16;fontFamily=Times New Roman;" edge="1" parent="1" source="Cfc-i1cAho32yu0Xs4cY-2">
          <mxGeometry relative="1" as="geometry">
            <mxPoint x="450" y="265" as="targetPoint" />
          </mxGeometry>
        </mxCell>
        <mxCell id="Cfc-i1cAho32yu0Xs4cY-2" value="&lt;font style=&quot;font-size: 16px;&quot;&gt;Acoustic Model&lt;/font&gt;" style="rounded=1;whiteSpace=wrap;html=1;fontStyle=1;fillColor=#dae8fc;strokeColor=#000000;fontSize=16;fontFamily=Times New Roman;" vertex="1" parent="1">
          <mxGeometry x="490" y="240" width="140" height="50" as="geometry" />
        </mxCell>
        <mxCell id="Cfc-i1cAho32yu0Xs4cY-10" style="edgeStyle=orthogonalEdgeStyle;rounded=0;orthogonalLoop=1;jettySize=auto;html=1;fontSize=16;fontFamily=Times New Roman;" edge="1" parent="1" target="Cfc-i1cAho32yu0Xs4cY-5">
          <mxGeometry relative="1" as="geometry">
            <mxPoint x="310" y="265" as="sourcePoint" />
          </mxGeometry>
        </mxCell>
        <mxCell id="Cfc-i1cAho32yu0Xs4cY-4" value="" style="shape=image;verticalLabelPosition=bottom;labelBackgroundColor=default;verticalAlign=top;aspect=fixed;imageAspect=0;image=data:image/png,iVBORw0KGgoAAAANSUhEUgAAAMgAAADICAYAAACtWK6eAAAAAXNSR0IArs4c6QAAB+hJREFUeF7t3e2NHFUQRuHedQLIOSDCAOJBxACOAUE6OA3kHBAJeBcZDLK8u6Pb5ZrqrqmH3/fzvPfMrR4vPXeb/xBA4EUCd9gggMDLBAjidCBwgQBBHA8ECOIMIBAj4AaJcdNrCAGCDAnaNmMECBLjptcQAgQZErRtxggQJMZNryEECDIkaNuMESBIjJteQwgQZEjQthkjQJAYN72GECDIkKBtM0aAIDFueg0hQJAhQdtmjABBYtz0GkKAIEOCts0YAYLEuOk1hABBhgRtmzECBIlx02sIAYIMCdo2YwQIEuOm1xACBBkStG3GCBAkxk2vIQQIMiRo24wRIEiMm15DCBBkSNC2GSNAkBg3vYYQIMiQoG0zRoAgMW56DSFAkCFB22aMAEFi3PQaQoAgQ4K2zRgBgsS46TWEAEGGBG2bMQIEiXHTawgBggwJ2jZjBAgS46bXEAIEGRK0bcYIECTGTa8hBAgyJGjbjBEgSIybXkMIEGRI0LYZI0CQGDe9hhAgyJCgbTNGgCAxbnoNIUCQIUHbZowAQWLc9BpCgCBDgrbNGAGCxLjpNYQAQYYEbZsxAq0E+eqXd9/dvdp+2rPVx/fbm79+/Prtnj7aIvAfgXaC3L/aft8T38P77XuC7CGm7acECOI8IHCBAEEcDwQI4hmEBTECbpAYN72GECDIkKBtM0aAIDFueg0hQJAhQdtmjABBYtz0GkKAIEOCts0YAYLEuOk1hECaIB/+TirCbM+fgXyYw5+arFGuyGNtJb1bpQpy7cNLkPXDhtU6q0stCZLD8XSjECQnEoLkcDzdKATJiYQgORxPNwpBciIhSA7H041CkJxICJLD8XSjECQnEoLkcDzdKATJiYQgORxPNwpBciIhSA7H041CkJxICJLD8XSjECQnEoLkcDzdKATJiYQgORxPNwpBciIhSA7HXaNUvADvVgSpYHUpPILsOto5jSsOb8UcOTQuj3L0PghSkfJnc1SEXjFHBbqj90GQipQJEqZMkB0vlj4aVjhlgoTRHZ25GyQcXbxjRegVc8QJrPc8eh8EWc8qrWVF6BVzpAG5MNDR+yBIRcpKrDBlgngGWTo8e3/n5OiDtbSphUZH78MN8tyn+/3Drje0PDzcvz3b21mOPlgLZ3+pSeY+Xv/6x89Lk37S6O71b+8ed3V6fHjz5w/fPJkocyMvrccc6z/jUMFq17kJNs7cxz+C3N3v+gk/gtzo80HmwQqe7ZRumfsgyDORnLF2zwz96Ns2YsFR5ShBCPI/gVuSMOuFhAQhCEG2bXupaiAIQQhCkOv+TrrS5FzflGXm4QZxg7hB3CBukJVvjjI/eY/+psxD+kri27YJ/XbLnwoJlVhKLCWWEkuJtXLhum2f3rZuEDeIG8QN4gZxg1wm4B8KV07Ixzb+Fmsd1q2zUmIpsZRYSiwl1sqd4CHdQ/rKOXnxD9cqvnc3x1MCR5ZxSiwllhJLiaXEWrk6lVhKrJVzosRaovRvoyPLn4pyVImlxFJiKbGUWCuXghJLibVyTm6+bKgoTW5lDiWWEkuJpcRSYq1cnUosJdbKOVFiLVHyLdZLmLxZ8TMyPnn3/V+Ld6+2Xa/yfHy/vfHiuMVPrVv/3v1WHm4X47xKs8wPLA/pHtJLH9KvYsQVb3SCJAnSqWw48pbqKMjj3f23e9btGWQPraS2mWUDQZ4S2Fu6X4qVIEmHfs8wBFmnVcGKIDt+5m09unjLitAr5ogTWO959D7cIOtZpbWsCL1ijjQgFwY6eh8EqUj5it/MeAa59jPI6g8b3t8/bg8P//zo5y3/RmGFLxWfihVz3Aqri88gWZusCKRijiwel8ap2EfFHLfCiiAe0pfOcubXo0sTLjQ6WnS/k74QUnaTitAr5sjm8tx4R++DIBUpP/OQHpn2qD/yi6w1q88HQSJj7WGlxDpZiRUJfG+foz959673rO3dIGdN5gvXRZAvBPixO0FyOJ5uFILkREKQHI6nG4UgOZEQJIfj6UYhSE4kBMnheLpRCJITCUFyOJ5uFILkREKQHI6nG4UgOZEQJIfj6UYhSE4kBMnheLpRCJITCUFyOJ5uFILkRJIqyC28DSQH6/GjfBDk2nkcv8vrryBNkOsvddt8KlZQNsenBAjiPCBwgQBBHA8ECLL+QmanBQElljOAwCIBJdYiKM1mEiDIzNztepEAQRZBaTaTAEFm5m7XiwQIsghKs5kECDIzd7teJECQRVCazSTQTpBITFkvEYvMrU9vAq0E6Y3a6jsSIEjH1Ky5jABBylCbqCMBgnRMzZrLCBCkDLWJOhIgSMfUrLmMAEHKUJuoIwGCdEzNmssIEKQMtYk6EiBIx9SsuYwAQcpQm6gjAYJ0TM2aywgQpAy1iToSIEjH1Ky5jABBylCbqCMBgnRMzZrLCBCkDLWJOhIgSMfUrLmMAEHKUJuoIwGCdEzNmssIEKQMtYk6EiBIx9SsuYwAQcpQm6gjAYJ0TM2aywgQpAy1iToSIEjH1Ky5jABBylCbqCMBgnRMzZrLCBCkDLWJOhIgSMfUrLmMAEHKUJuoIwGCdEzNmssIEKQMtYk6EiBIx9SsuYwAQcpQm6gjAYJ0TM2aywgQpAy1iToSIEjH1Ky5jABBylCbqCMBgnRMzZrLCBCkDLWJOhIgSMfUrLmMAEHKUJuoIwGCdEzNmssIEKQMtYk6EiBIx9SsuYzA3ySmjvrPrAMbAAAAAElFTkSuQmCC;fontSize=16;fontFamily=Times New Roman;" vertex="1" parent="1">
          <mxGeometry x="150" y="120" width="110" height="110" as="geometry" />
        </mxCell>
        <mxCell id="Cfc-i1cAho32yu0Xs4cY-5" value="&lt;font style=&quot;font-size: 16px;&quot;&gt;&lt;b style=&quot;font-size: 16px;&quot;&gt;&quot;Please call stella&quot;&lt;/b&gt;&lt;br style=&quot;font-size: 16px;&quot;&gt;Transcription&lt;/font&gt;" style="text;html=1;align=center;verticalAlign=middle;whiteSpace=wrap;rounded=0;fontSize=16;fontFamily=Times New Roman;" vertex="1" parent="1">
          <mxGeometry x="140" y="240" width="130" height="50" as="geometry" />
        </mxCell>
        <mxCell id="Cfc-i1cAho32yu0Xs4cY-6" value="&lt;font style=&quot;font-size: 16px;&quot;&gt;Audio signal&lt;/font&gt;" style="text;html=1;align=center;verticalAlign=middle;whiteSpace=wrap;rounded=0;fontSize=16;fontFamily=Times New Roman;" vertex="1" parent="1">
          <mxGeometry x="140" y="200" width="130" height="30" as="geometry" />
        </mxCell>
        <mxCell id="Cfc-i1cAho32yu0Xs4cY-25" style="edgeStyle=orthogonalEdgeStyle;rounded=0;orthogonalLoop=1;jettySize=auto;html=1;entryX=0.5;entryY=0;entryDx=0;entryDy=0;" edge="1" parent="1" source="Cfc-i1cAho32yu0Xs4cY-13" target="Cfc-i1cAho32yu0Xs4cY-22">
          <mxGeometry relative="1" as="geometry" />
        </mxCell>
        <mxCell id="Cfc-i1cAho32yu0Xs4cY-13" value="&lt;font style=&quot;font-size: 16px;&quot;&gt;&lt;b style=&quot;font-size: 16px;&quot;&gt;Decoder&lt;/b&gt;&lt;/font&gt;" style="shape=trapezoid;perimeter=trapezoidPerimeter;whiteSpace=wrap;html=1;fixedSize=1;rotation=0;fillColor=#d5e8d4;strokeColor=#000000;fontSize=16;fontFamily=Times New Roman;" vertex="1" parent="1">
          <mxGeometry x="460" y="730" width="120" height="60" as="geometry" />
        </mxCell>
        <mxCell id="Cfc-i1cAho32yu0Xs4cY-21" style="edgeStyle=orthogonalEdgeStyle;rounded=0;orthogonalLoop=1;jettySize=auto;html=1;" edge="1" parent="1" source="Cfc-i1cAho32yu0Xs4cY-14" target="Cfc-i1cAho32yu0Xs4cY-13">
          <mxGeometry relative="1" as="geometry" />
        </mxCell>
        <mxCell id="Cfc-i1cAho32yu0Xs4cY-14" value="Acoustic Model" style="rounded=1;whiteSpace=wrap;html=1;fillColor=#ffe6cc;strokeColor=#000000;fontSize=16;fontFamily=Times New Roman;fontStyle=1" vertex="1" parent="1">
          <mxGeometry x="460" y="630" width="120" height="60" as="geometry" />
        </mxCell>
        <mxCell id="Cfc-i1cAho32yu0Xs4cY-15" value="" style="shape=image;verticalLabelPosition=bottom;labelBackgroundColor=default;verticalAlign=top;aspect=fixed;imageAspect=0;image=data:image/png,iVBORw0KGgoAAAANSUhEUgAAAMgAAADICAYAAACtWK6eAAAAAXNSR0IArs4c6QAAB+hJREFUeF7t3e2NHFUQRuHedQLIOSDCAOJBxACOAUE6OA3kHBAJeBcZDLK8u6Pb5ZrqrqmH3/fzvPfMrR4vPXeb/xBA4EUCd9gggMDLBAjidCBwgQBBHA8ECOIMIBAj4AaJcdNrCAGCDAnaNmMECBLjptcQAgQZErRtxggQJMZNryEECDIkaNuMESBIjJteQwgQZEjQthkjQJAYN72GECDIkKBtM0aAIDFueg0hQJAhQdtmjABBYtz0GkKAIEOCts0YAYLEuOk1hABBhgRtmzECBIlx02sIAYIMCdo2YwQIEuOm1xACBBkStG3GCBAkxk2vIQQIMiRo24wRIEiMm15DCBBkSNC2GSNAkBg3vYYQIMiQoG0zRoAgMW56DSFAkCFB22aMAEFi3PQaQoAgQ4K2zRgBgsS46TWEAEGGBG2bMQIEiXHTawgBggwJ2jZjBAgS46bXEAIEGRK0bcYIECTGTa8hBAgyJGjbjBEgSIybXkMIEGRI0LYZI0CQGDe9hhAgyJCgbTNGgCAxbnoNIUCQIUHbZowAQWLc9BpCgCBDgrbNGAGCxLjpNYQAQYYEbZsxAq0E+eqXd9/dvdp+2rPVx/fbm79+/Prtnj7aIvAfgXaC3L/aft8T38P77XuC7CGm7acECOI8IHCBAEEcDwQI4hmEBTECbpAYN72GECDIkKBtM0aAIDFueg0hQJAhQdtmjABBYtz0GkKAIEOCts0YAYLEuOk1hECaIB/+TirCbM+fgXyYw5+arFGuyGNtJb1bpQpy7cNLkPXDhtU6q0stCZLD8XSjECQnEoLkcDzdKATJiYQgORxPNwpBciIhSA7H041CkJxICJLD8XSjECQnEoLkcDzdKATJiYQgORxPNwpBciIhSA7H041CkJxICJLD8XSjECQnEoLkcDzdKATJiYQgORxPNwpBciIhSA7HXaNUvADvVgSpYHUpPILsOto5jSsOb8UcOTQuj3L0PghSkfJnc1SEXjFHBbqj90GQipQJEqZMkB0vlj4aVjhlgoTRHZ25GyQcXbxjRegVc8QJrPc8eh8EWc8qrWVF6BVzpAG5MNDR+yBIRcpKrDBlgngGWTo8e3/n5OiDtbSphUZH78MN8tyn+/3Drje0PDzcvz3b21mOPlgLZ3+pSeY+Xv/6x89Lk37S6O71b+8ed3V6fHjz5w/fPJkocyMvrccc6z/jUMFq17kJNs7cxz+C3N3v+gk/gtzo80HmwQqe7ZRumfsgyDORnLF2zwz96Ns2YsFR5ShBCPI/gVuSMOuFhAQhCEG2bXupaiAIQQhCkOv+TrrS5FzflGXm4QZxg7hB3CBukJVvjjI/eY/+psxD+kri27YJ/XbLnwoJlVhKLCWWEkuJtXLhum2f3rZuEDeIG8QN4gZxg1wm4B8KV07Ixzb+Fmsd1q2zUmIpsZRYSiwl1sqd4CHdQ/rKOXnxD9cqvnc3x1MCR5ZxSiwllhJLiaXEWrk6lVhKrJVzosRaovRvoyPLn4pyVImlxFJiKbGUWCuXghJLibVyTm6+bKgoTW5lDiWWEkuJpcRSYq1cnUosJdbKOVFiLVHyLdZLmLxZ8TMyPnn3/V+Ld6+2Xa/yfHy/vfHiuMVPrVv/3v1WHm4X47xKs8wPLA/pHtJLH9KvYsQVb3SCJAnSqWw48pbqKMjj3f23e9btGWQPraS2mWUDQZ4S2Fu6X4qVIEmHfs8wBFmnVcGKIDt+5m09unjLitAr5ogTWO959D7cIOtZpbWsCL1ijjQgFwY6eh8EqUj5it/MeAa59jPI6g8b3t8/bg8P//zo5y3/RmGFLxWfihVz3Aqri88gWZusCKRijiwel8ap2EfFHLfCiiAe0pfOcubXo0sTLjQ6WnS/k74QUnaTitAr5sjm8tx4R++DIBUpP/OQHpn2qD/yi6w1q88HQSJj7WGlxDpZiRUJfG+foz959673rO3dIGdN5gvXRZAvBPixO0FyOJ5uFILkREKQHI6nG4UgOZEQJIfj6UYhSE4kBMnheLpRCJITCUFyOJ5uFILkREKQHI6nG4UgOZEQJIfj6UYhSE4kBMnheLpRCJITCUFyOJ5uFILkRJIqyC28DSQH6/GjfBDk2nkcv8vrryBNkOsvddt8KlZQNsenBAjiPCBwgQBBHA8ECLL+QmanBQElljOAwCIBJdYiKM1mEiDIzNztepEAQRZBaTaTAEFm5m7XiwQIsghKs5kECDIzd7teJECQRVCazSTQTpBITFkvEYvMrU9vAq0E6Y3a6jsSIEjH1Ky5jABBylCbqCMBgnRMzZrLCBCkDLWJOhIgSMfUrLmMAEHKUJuoIwGCdEzNmssIEKQMtYk6EiBIx9SsuYwAQcpQm6gjAYJ0TM2aywgQpAy1iToSIEjH1Ky5jABBylCbqCMBgnRMzZrLCBCkDLWJOhIgSMfUrLmMAEHKUJuoIwGCdEzNmssIEKQMtYk6EiBIx9SsuYwAQcpQm6gjAYJ0TM2aywgQpAy1iToSIEjH1Ky5jABBylCbqCMBgnRMzZrLCBCkDLWJOhIgSMfUrLmMAEHKUJuoIwGCdEzNmssIEKQMtYk6EiBIx9SsuYwAQcpQm6gjAYJ0TM2aywgQpAy1iToSIEjH1Ky5jABBylCbqCMBgnRMzZrLCBCkDLWJOhIgSMfUrLmMAEHKUJuoIwGCdEzNmssIEKQMtYk6EiBIx9SsuYzA3ySmjvrPrAMbAAAAAElFTkSuQmCC;fontSize=16;fontFamily=Times New Roman;" vertex="1" parent="1">
          <mxGeometry x="310" y="805" width="100" height="100" as="geometry" />
        </mxCell>
        <mxCell id="Cfc-i1cAho32yu0Xs4cY-29" style="edgeStyle=orthogonalEdgeStyle;rounded=0;orthogonalLoop=1;jettySize=auto;html=1;entryX=0;entryY=0.5;entryDx=0;entryDy=0;" edge="1" parent="1" source="Cfc-i1cAho32yu0Xs4cY-16" target="Cfc-i1cAho32yu0Xs4cY-14">
          <mxGeometry relative="1" as="geometry" />
        </mxCell>
        <mxCell id="Cfc-i1cAho32yu0Xs4cY-16" value="&lt;font style=&quot;font-size: 16px;&quot;&gt;Feature Extraction&lt;/font&gt;" style="rounded=1;whiteSpace=wrap;html=1;fontStyle=1;fillColor=#f5f5f5;strokeColor=#000000;fontSize=16;fontFamily=Times New Roman;fontColor=#333333;" vertex="1" parent="1">
          <mxGeometry x="300" y="630" width="120" height="60" as="geometry" />
        </mxCell>
        <mxCell id="Cfc-i1cAho32yu0Xs4cY-17" value="&lt;font style=&quot;font-size: 16px;&quot;&gt;Audio signal&lt;/font&gt;" style="text;html=1;align=center;verticalAlign=middle;whiteSpace=wrap;rounded=0;fontSize=16;fontFamily=Times New Roman;" vertex="1" parent="1">
          <mxGeometry x="310" y="880" width="100" height="20" as="geometry" />
        </mxCell>
        <mxCell id="Cfc-i1cAho32yu0Xs4cY-22" value="&lt;font style=&quot;font-size: 16px;&quot;&gt;&lt;b style=&quot;font-size: 16px;&quot;&gt;&quot;Please call stella&quot;&lt;/b&gt;&lt;br&gt;&lt;/font&gt;" style="text;html=1;align=center;verticalAlign=middle;whiteSpace=wrap;rounded=0;fontSize=16;fontFamily=Times New Roman;" vertex="1" parent="1">
          <mxGeometry x="450" y="830" width="140" height="50" as="geometry" />
        </mxCell>
        <mxCell id="Cfc-i1cAho32yu0Xs4cY-23" value="&lt;font style=&quot;font-size: 16px;&quot;&gt;Decoder&lt;/font&gt;" style="rounded=1;whiteSpace=wrap;html=1;fontStyle=1;fillColor=#dae8fc;strokeColor=#000000;fontSize=16;fontFamily=Times New Roman;" vertex="1" parent="1">
          <mxGeometry x="310" y="240" width="140" height="50" as="geometry" />
        </mxCell>
        <mxCell id="Cfc-i1cAho32yu0Xs4cY-28" style="edgeStyle=orthogonalEdgeStyle;rounded=0;orthogonalLoop=1;jettySize=auto;html=1;exitX=0.5;exitY=0;exitDx=0;exitDy=0;entryX=0.5;entryY=1;entryDx=0;entryDy=0;" edge="1" parent="1" source="Cfc-i1cAho32yu0Xs4cY-26" target="Cfc-i1cAho32yu0Xs4cY-16">
          <mxGeometry relative="1" as="geometry" />
        </mxCell>
        <mxCell id="Cfc-i1cAho32yu0Xs4cY-26" value="&lt;font style=&quot;font-size: 16px;&quot;&gt;Pre-processing&lt;/font&gt;" style="rounded=1;whiteSpace=wrap;html=1;fontStyle=1;fillColor=#dae8fc;strokeColor=#000000;fontSize=16;fontFamily=Times New Roman;" vertex="1" parent="1">
          <mxGeometry x="300" y="730" width="120" height="60" as="geometry" />
        </mxCell>
        <mxCell id="Cfc-i1cAho32yu0Xs4cY-30" value="" style="endArrow=classic;html=1;rounded=0;" edge="1" parent="1">
          <mxGeometry width="50" height="50" relative="1" as="geometry">
            <mxPoint x="359.62" y="830" as="sourcePoint" />
            <mxPoint x="359.62" y="790" as="targetPoint" />
          </mxGeometry>
        </mxCell>
        <mxCell id="Cfc-i1cAho32yu0Xs4cY-31" value="&lt;font style=&quot;font-size: 16px;&quot;&gt;Transcription&lt;/font&gt;" style="text;html=1;align=center;verticalAlign=middle;whiteSpace=wrap;rounded=0;fontSize=16;fontFamily=Times New Roman;" vertex="1" parent="1">
          <mxGeometry x="470" y="880" width="100" height="20" as="geometry" />
        </mxCell>
      </root>
    </mxGraphModel>
  </diagram>
</mxfile>
